<svg width="86" height="40" viewBox="0 0 86 40" fill="none" xmlns="http://www.w3.org/2000/svg">
<path d="M42.4702 4.49449H47.7912V0H42.4702V4.49449Z" fill="#E2E2E2"/>
<path d="M47.7915 4.49449H53.1125V0H47.7915V4.49449Z" fill="#325B92"/>
<path d="M42.4702 8.98863H47.7912V4.49414H42.4702V8.98863Z" fill="#325B92"/>
<path d="M47.7915 8.98863H53.1125V4.49414H47.7915V8.98863Z" fill="#E2E2E2"/>
<path d="M75.0957 23.7122L86.0002 8.98898H73.2642L65.5875 20.8944V0H55.0229V39.1479H65.5875V32.7501L67.6416 29.9918L72.5135 39.1479H85.4851L75.0957 23.7122Z" fill="#E2E2E2"/>
<path d="M42.5478 28.2899C42.5421 28.2956 42.5356 28.3021 42.5307 28.3086C42.4859 30.6529 40.5794 32.5423 38.2237 32.5423C35.8403 32.5423 33.9085 30.6105 33.9085 28.2271V0H23.4141V29.1628C23.4141 36.1931 29.8909 39.143 34.7815 39.143C39.7708 39.143 41.1133 37.9766 42.5478 36.7026V39.1479H53.1124V10.7993H42.5478V28.2899Z" fill="#325B92"/>
<path d="M42.4704 28.8132C42.1827 30.9153 40.4058 32.5423 38.2237 32.5423C35.8403 32.5423 33.9085 30.6105 33.9085 28.2271V0H23.4141V29.1628C23.4141 36.1931 29.8909 39.143 34.7815 39.143C39.6811 39.143 41.0644 38.0173 42.4704 36.7702V28.8132Z" fill="#E2E2E2"/>
<path d="M42.5479 39.1481H53.1124V38.0273H42.5479V39.1481Z" fill="#325B92"/>
<path d="M42.4702 39.1484H53.1122V10.7998H42.4702V39.1484Z" fill="#325B92"/>
<path d="M0 0V9.76985H10.5059V39.1479H21.6851V9.78371H23.4139V10.3298H33.9084V0H0Z" fill="#E2E2E2"/>
</svg>
